<?xml version="1.0" encoding="UTF-8"?><svg xmlns="http://www.w3.org/2000/svg" xmlns:xlink="http://www.w3.org/1999/xlink" stroke-dasharray="none" shape-rendering="auto" font-family="'Dialog'" width="1000" text-rendering="auto" fill-opacity="1" contentScriptType="text/ecmascript" color-interpolation="auto" color-rendering="auto" preserveAspectRatio="xMidYMid meet" font-size="12px" fill="black" stroke="black" image-rendering="auto" stroke-miterlimit="10" zoomAndPan="magnify" version="1.0" stroke-linecap="square" stroke-linejoin="miter" contentStyleType="text/css" font-style="normal" height="1000" stroke-width="1" stroke-dashoffset="0" font-weight="normal" stroke-opacity="1"><!--Generated by the Batik Graphics2D SVG Generator--><defs id="genericDefs"/><g><g fill="red" stroke="red"><rect fill="none" x="0" width="100" height="100" y="0"/><text x="0" xml:space="preserve" y="115" stroke="none">101</text><rect x="0" width="100" height="100" y="0" stroke="none"/><rect x="0" y="0" transform="translate(110,0)" fill="none" width="100" height="100" stroke="lime"/><text fill="lime" x="0" xml:space="preserve" y="115" transform="translate(110,0)" stroke="none">102</text><rect x="0" y="0" transform="translate(110,0)" fill="lime" width="100" height="100" stroke="none"/><rect x="0" y="0" transform="translate(220,0)" fill="none" width="100" height="100" stroke="lime"/><text fill="lime" x="0" xml:space="preserve" y="115" transform="translate(220,0)" stroke="none">103</text><rect x="0" y="0" transform="translate(220,0)" fill="lime" width="100" height="100" stroke="none"/><rect fill="none" x="0" width="100" height="100" y="0" transform="translate(330,0)"/><text x="0" xml:space="preserve" y="115" transform="translate(330,0)" stroke="none">104</text><rect x="0" width="100" height="100" y="0" transform="translate(330,0)" stroke="none"/><rect x="0" y="0" transform="translate(440,0)" fill="none" width="100" height="100" stroke="lime"/><text fill="lime" x="0" xml:space="preserve" y="115" transform="translate(440,0)" stroke="none">105</text><rect x="0" y="0" transform="translate(440,0)" fill="lime" width="100" height="100" stroke="none"/><rect x="0" y="0" transform="translate(550,0)" fill="none" width="100" height="100" stroke="lime"/><text fill="lime" x="0" xml:space="preserve" y="115" transform="translate(550,0)" stroke="none">106</text><rect x="0" y="0" transform="translate(550,0)" fill="lime" width="100" height="100" stroke="none"/><rect x="0" y="0" transform="translate(660,0)" fill="none" width="100" height="100" stroke="lime"/><text fill="lime" x="0" xml:space="preserve" y="115" transform="translate(660,0)" stroke="none">107</text><rect x="0" y="0" transform="translate(660,0)" fill="lime" width="100" height="100" stroke="none"/></g></g></svg>